<?xml version="1.0" standalone="no"?>
<!DOCTYPE svg PUBLIC "-//W3C//DTD SVG 20010904//EN"
 "http://www.w3.org/TR/2001/REC-SVG-20010904/DTD/svg10.dtd">
<svg version="1.0" xmlns="http://www.w3.org/2000/svg"
 width="512.000000pt" height="512.000000pt" viewBox="0 0 512.000000 512.000000"
 preserveAspectRatio="xMidYMid meet">
<metadata>
Created by potrace 1.11, written by Peter Selinger 2001-2013
</metadata>
<g transform="translate(0.000000,512.000000) scale(0.100000,-0.100000)"
fill="#000000" stroke="none">
<path d="M0 3920 l0 -1200 2560 0 2560 0 0 1200 0 1200 -2560 0 -2560 0 0
-1200z m1899 61 l246 -465 3 467 2 467 75 0 75 0 0 -580 0 -581 -102 3 -101 3
-271 509 -271 509 -3 -511 -2 -512 -75 0 -75 0 0 580 0 581 126 -3 126 -3 247
-464z m1481 399 l0 -70 -310 0 -310 0 0 -155 0 -155 310 0 310 0 0 -70 0 -70
-310 0 -310 0 0 -215 0 -215 310 0 310 0 0 -70 0 -70 -390 0 -390 0 0 580 0
580 390 0 390 0 0 -70z m1070 0 l0 -70 -210 0 -210 0 0 -510 0 -510 -80 0 -80
0 0 510 0 510 -205 0 -205 0 0 70 0 70 495 0 495 0 0 -70z m-3390 -980 l0
-110 -100 0 -100 0 0 110 0 110 100 0 100 0 0 -110z"/>
<path d="M0 1200 l0 -1200 2560 0 2560 0 0 1200 0 1200 -2560 0 -2560 0 0
-1200z m900 15 l0 -465 265 0 265 0 0 -60 0 -60 -335 0 -335 0 0 525 0 525 70
0 70 0 0 -465z m800 395 l0 -70 -80 0 -80 0 0 70 0 70 80 0 80 0 0 -70z m741
-182 c56 -16 112 -69 140 -130 23 -52 24 -61 27 -360 l3 -308 -70 0 -70 0 -3
288 c-3 312 -5 325 -61 366 -21 16 -42 20 -95 19 -69 0 -113 -14 -183 -59
l-39 -24 0 -295 0 -295 -70 0 -70 0 0 395 0 395 70 0 70 0 0 -39 0 -40 51 35
c28 19 72 40 97 48 58 18 152 20 203 4z m-751 -403 l0 -395 -70 0 -70 0 0 395
0 395 70 0 70 0 0 -395z m1302 108 c3 -315 6 -332 65 -370 60 -40 203 -13 290
53 l33 25 0 290 0 289 65 0 65 0 0 -395 0 -395 -65 0 -65 0 0 40 c0 22 -2 40
-5 40 -3 0 -24 -13 -46 -30 -135 -98 -333 -92 -412 12 -60 78 -61 87 -65 421
l-4 307 71 0 70 0 3 -287z m966 147 c57 -76 106 -141 111 -144 4 -3 56 60 115
140 l108 144 80 0 c63 0 78 -3 71 -12 -6 -7 -74 -93 -152 -191 -77 -98 -141
-182 -141 -186 0 -4 67 -95 150 -202 l149 -194 -76 -3 c-42 -2 -81 -1 -88 1
-6 3 -57 68 -114 146 -56 78 -106 141 -110 141 -4 0 -55 -65 -114 -145 l-108
-145 -81 0 c-76 0 -80 1 -66 18 28 32 267 340 279 360 11 17 -4 40 -134 210
-81 105 -147 193 -147 196 0 3 37 6 83 6 l83 0 102 -140z"/>
</g>
</svg>
